<?xml version="1.0" standalone="no"?>
<!DOCTYPE svg PUBLIC "-//W3C//DTD SVG 20010904//EN"
 "http://www.w3.org/TR/2001/REC-SVG-20010904/DTD/svg10.dtd">
<svg version="1.0" xmlns="http://www.w3.org/2000/svg"
 width="700.000000pt" height="700.000000pt" viewBox="0 0 700.000000 700.000000"
 preserveAspectRatio="xMidYMid meet">
<metadata>
Created by potrace 1.14, written by Peter Selinger 2001-2017
</metadata>
<g transform="translate(0.000000,700.000000) scale(0.100000,-0.100000)"
fill="#000000" stroke="none">
<path d="M3277 6994 c-1 -1 -41 -4 -88 -8 -47 -4 -95 -8 -105 -10 -10 -2 -46
-7 -79 -11 -59 -7 -79 -10 -125 -20 -36 -8 -71 -14 -105 -20 -125 -22 -500
-139 -599 -186 -22 -11 -44 -19 -48 -19 -16 0 -321 -155 -403 -205 -282 -170
-468 -316 -701 -549 -200 -201 -295 -316 -443 -539 -269 -404 -450 -861 -531
-1341 -22 -132 -25 -151 -37 -286 -15 -164 -8 -589 12 -711 2 -13 6 -46 10
-74 9 -76 16 -116 25 -160 5 -22 11 -53 14 -70 40 -220 151 -548 267 -790 214
-448 512 -832 915 -1180 58 -50 202 -157 289 -215 44 -29 92 -61 107 -71 51
-36 241 -140 337 -185 201 -96 446 -186 626 -230 237 -58 403 -87 595 -102
125 -9 481 -9 595 1 654 59 1263 293 1790 687 326 245 575 507 818 863 37 54
67 99 67 101 0 2 19 35 42 72 222 365 405 911 453 1349 4 33 9 71 10 85 2 14
7 107 11 208 7 209 -1 251 -60 296 -35 27 -52 32 -131 41 -125 15 -222 53
-330 130 -87 63 -148 135 -209 250 -51 97 -148 129 -236 78 -183 -105 -276
-132 -430 -126 -235 8 -462 154 -568 364 -51 103 -74 203 -73 325 0 170 -54
224 -223 223 -50 0 -113 4 -141 10 -324 63 -550 336 -547 661 1 109 26 219 67
295 83 153 83 153 80 200 -4 67 -36 105 -132 161 -207 119 -326 301 -349 529
-9 86 -39 136 -100 168 -26 13 -61 16 -183 15 -83 -1 -153 -3 -154 -4z m124
-341 c8 -87 93 -271 179 -388 37 -49 137 -149 193 -192 28 -22 28 -22 11 -60
-9 -21 -29 -87 -44 -148 -25 -99 -28 -123 -25 -250 3 -155 6 -175 42 -290 106
-335 374 -586 723 -674 46 -11 97 -21 112 -21 16 0 30 -6 32 -12 2 -7 11 -53
20 -103 44 -227 184 -452 372 -597 272 -209 649 -265 968 -144 l69 26 16 -22
c105 -150 297 -287 490 -350 l102 -33 -5 -100 c-7 -119 -21 -235 -42 -350 -2
-10 -6 -36 -9 -55 -3 -20 -13 -68 -23 -106 -19 -78 -5 -73 -150 -52 l-83 12 6
30 c3 17 7 54 11 81 3 28 7 61 9 75 3 14 7 73 11 131 l6 107 -58 16 c-207 59
-412 198 -529 359 l-20 28 -48 -21 c-46 -21 -123 -43 -196 -58 -20 -4 -103 -7
-186 -6 -122 0 -165 4 -234 22 -388 104 -671 412 -741 810 -12 65 -16 72 -37
73 -12 1 -26 2 -30 3 -5 1 -28 6 -53 10 -292 54 -575 278 -705 559 -66 143
-90 257 -89 432 0 126 18 227 55 326 11 30 23 61 25 69 3 9 -14 29 -45 53
-147 112 -273 301 -330 495 l-22 73 -87 -6 c-173 -11 -428 -49 -543 -81 -29
-8 -63 -17 -74 -19 -51 -11 -191 -57 -305 -99 -257 -97 -530 -247 -766 -423
-40 -29 -77 -53 -83 -53 -22 0 -10 26 27 59 164 149 164 149 267 227 334 252
645 407 1070 533 114 34 247 61 420 86 158 23 324 32 326 18z"/>
</g>
</svg>
